<?xml version="1.0" encoding="UTF-8"?>
<svg width="48" height="48" viewBox="0 0 48 48" fill="none" xmlns="http://www.w3.org/2000/svg">
  <path d="M24 4C13.5066 4 5 12.5066 5 23C5 33.4934 13.5066 42 24 42C34.4934 42 43 33.4934 43 23C43 12.5066 34.4934 4 24 4Z" fill="#33CCFF"/>
  <path d="M24 14C20.134 14 17 17.134 17 21C17 24.866 20.134 28 24 28C27.866 28 31 24.866 31 21C31 17.134 27.866 14 24 14ZM24 25C21.7909 25 20 23.2091 20 21C20 18.7909 21.7909 17 24 17C26.2091 17 28 18.7909 28 21C28 23.2091 26.2091 25 24 25Z" fill="white"/>
  <path d="M24 19C22.8954 19 22 19.8954 22 21C22 22.1046 22.8954 23 24 23C25.1046 23 26 22.1046 26 21C26 19.8954 25.1046 19 24 19Z" fill="white"/>
  <path d="M32 28C30.8954 28 30 28.8954 30 30C30 31.1046 30.8954 32 32 32C33.1046 32 34 31.1046 34 30C34 28.8954 33.1046 28 32 28Z" fill="white"/>
  <path d="M16 28C14.8954 28 14 28.8954 14 30C14 31.1046 14.8954 32 16 32C17.1046 32 18 31.1046 18 30C18 28.8954 17.1046 28 16 28Z" fill="white"/>
</svg> 